<?xml version="1.0" encoding="utf-8"?>
<!-- Generator: Adobe Illustrator 27.9.0, SVG Export Plug-In . SVG Version: 6.00 Build 0)  -->
<svg version="1.1" id="ip_Layer1" xmlns="http://www.w3.org/2000/svg" xmlns:xlink="http://www.w3.org/1999/xlink" x="0px" y="0px"
	 viewBox="0 0 200 200" style="enable-background:new 0 0 200 200;" xml:space="preserve">
<style type="text/css">
	.st0{fill:#7F57AA;}
	.st1{fill:#512974;}
	.st2{display:none;}
	.st3{display:inline;fill:#FFFFFF;}
	.st4{display:inline;opacity:0.7;fill:#C7D2FE;enable-background:new    ;}
	.st5{display:none;fill:#FFFFFF;enable-background:new    ;}
	.st6{font-family:'Arial-BoldMT';}
	.st7{font-size:22px;}
	.st8{fill:#FFFFFF;}
	.st9{fill:#EE6926;}
	.st10{fill:#F38372;}
</style>
<circle class="st0" cx="100" cy="100" r="100"/>
<circle class="st1" cx="100" cy="100" r="84"/>
<g transform="translate(100,100)" class="st2">
	<path class="st3" d="M-38-18h30v-10L18,0L-8,28V18h-30V-18z"/>
	<path class="st4" d="M8-12h30v24H8v10L-18,0L8-22V-12z"/>
</g>
<text transform="matrix(1 0 0 1 50.7539 158)" class="st5 st6 st7">InstaPay</text>
<g>
	<path class="st8" d="M112.2,86.6c7.7,0,15.5,0,23.2,0c3.3,0,6-1.9,7.1-4.8c1.1-2.9-0.3-5.1-3.4-5.2c-1,0-2.1,0-3.1,0
		c-8.7,0-17.3,0-26,0c-0.5,0-1.1,0-2.1,0c1.9-2,3.5-3.7,5.2-5.3c2-2,3.6-4.9,6.2-5.8c2.5-0.9,5.5-0.2,8.3-0.3c4.8,0,9.5-0.1,14.3,0
		c3.6,0.1,7.1,0.9,9.8,3.6c3.1,3.1,3.6,6.9,2.6,11c-2.5,10.2-12.2,18-22.7,18.2c-5.9,0.1-11.8,0.1-17.7,0c-1.3,0-1.9,0.4-2.3,1.7
		c-0.8,2.7-1.7,5.3-2.6,8c-0.3,0.9-0.7,1.4-1.8,1.3c-2.7-0.1-5.5-0.1-8.3,0c-1.2,0-1.5-0.3-1.1-1.5c1.3-3.7,2.4-7.5,3.6-11.3
		C105,93,108.6,89.8,112.2,86.6z"/>
	<path class="st9" d="M112.2,86.6c-3.6,3.2-7.1,6.4-10.7,9.6c-4.2,3.7-8.5,7.3-12.6,11.1c-1.3,1.2-2.7,1.7-4.4,1.6
		c-2.9-0.1-5.8,0-8.8,0c0.2-0.9,0.8-1.1,1.3-1.5c7.5-6.6,14.9-13.2,22.5-19.7c0.9-0.8,1.1-1.3,0.4-2.4c-3.7-6.2-7.2-12.5-10.8-18.7
		c-0.9-1.5-0.4-1.6,1-1.6c2.9,0.1,5.8,0.1,8.8,0c0.9,0,1.3,0.3,1.7,1C104.3,72.9,108.3,79.8,112.2,86.6z"/>
	<path class="st10" d="M58.4,108.9c2.5-2.2,4.6-4.1,6.7-6c5.9-5.2,11.8-10.4,17.7-15.5c0.8-0.7,0.6-1.2,0.2-2
		c-3.6-6.3-7.2-12.6-10.9-18.9c-0.7-1.2-0.7-1.6,0.9-1.6c2.9,0.1,5.8,0.1,8.8,0c0.9,0,1.4,0.3,1.9,1.1c3.7,6.5,7.4,13,11.2,19.5
		c0.4,0.7,0.5,1.1-0.2,1.8c-8,7-16,14.1-24,21.1c-0.3,0.3-0.6,0.5-1.1,0.5C66.1,108.9,62.5,108.9,58.4,108.9z"/>
	<path class="st8" d="M43.3,108.9c3-9.1,5.9-17.9,8.8-26.8c0.2-0.7,0.5-1,1.3-1c3,0,6,0.1,8.9,0c1,0,1.1,0.3,0.8,1.2
		c-2.8,8.5-5.6,17-8.4,25.5c-0.2,0.7-0.5,1.1-1.3,1.1C50.1,108.9,46.8,108.9,43.3,108.9z"/>
	<path class="st8" d="M106.9,129.1c0.5-1.8,1.8-2,3.5-1.9c2.3,0.1,4.7,0,7,0c0.6,0,1.3,0,1.8-0.3c0.9-0.4,1.6-1.1,1.4-2.1
		c-0.2-1-1.1-1-1.9-1c-3.1,0-6.3,0-10,0c2.2-1.8,3.1-4.5,6.4-4c1.8,0.3,3.7,0,5.5,0.1c3.7,0.3,5.1,2.6,3.7,6.1
		c-0.3,0.6-0.6,1.2-0.9,1.8c-0.1,0.1-0.2,0.3-0.3,0.4c-0.2,0.1-0.5,0.4-0.4,0.6c0.4,0.4,0.5-0.1,0.7-0.3c0.1-0.1,0.2-0.2,0.3-0.3
		c1.8-1.9,3.6-3.9,5.4-5.8c0.5-0.5,0.9-1,1.5-1.5c2.2-1.8,3.7-1.3,4.4,1.5c0.9,3.7,1.9,7.4,2.8,11.2c0.1,0.6,0.6,1.3-0.5,1.3
		c-4.4,0-8.8,0-13.5,0c1.9-2.3,3.4-4.8,6.8-4c1.6,0.3,1.9-0.4,1.4-1.8c-0.4-1-0.6-2.1-0.9-3.3c-2.3,2.5-4.7,4.7-6.6,7.2
		c-1.8,2.3-3.9,2-6.5,1.9c1.6-1.8,3-3.4,4.5-5c-0.2-0.2-0.3-0.3-0.3-0.3c-3.1,2.1-6.7,1.6-10.2,1.6c-0.9,0-1.4,0.1-1.8,1.1
		c-1,3-1.1,3-4.4,2.6c-0.1-0.6,0.2-1.2,0.3-1.8C106.2,131.6,107,130.5,106.9,129.1z"/>
	<path class="st8" d="M82.2,123.1c-0.7,0.6-1.4,0.8-2.3,0.7c-2.2-0.1-4.5,0-6.7,0c-0.5,0-1.2,0-1.2,0.6c0,0.8,0.8,0.5,1.2,0.5
		c1.8,0,3.6,0,5.3,0c3.3,0.1,4.8,2.3,3.5,5.3c-1.1,2.7-3.2,4.3-6,4.5c-3.9,0.2-7.8,0.1-12,0.1c1.3-1.3,2.3-2.4,3.4-3.5
		c0.4-0.4,0.9-0.4,1.4-0.4c2.2,0,4.5,0,6.7,0c0.5,0,1,0,1.5-0.1c0.7-0.1,1.5-0.4,1.4-1.3c-0.1-0.8-0.9-0.7-1.5-0.7
		c-1.9,0-3.9,0-5.8,0c-3.5-0.1-4.8-2.4-3.1-5.5c1-1.9,2.7-3.2,4.8-3.3c3.9-0.2,7.9-0.1,11.9-0.1c-0.1,1-1.2,1.2-1.4,2.1l0,0
		c-0.3,0-0.4,0.1-0.4,0.4l0,0c-0.3,0-0.4,0.1-0.4,0.4l0,0C82.3,122.7,82.1,122.9,82.2,123.1L82.2,123.1z"/>
	<path class="st8" d="M61.8,128c0.8-2.4,1.5-4.5,2.2-6.6c0.4-1.3,2.9-2.2,4-1.5c0.5,0.3,0.1,0.6,0,0.9c-1.3,4.1-2.7,8.1-4,12.2
		c-0.3,1-0.9,1.8-1.9,2c-1.2,0.2-1.7-0.7-2.3-1.5c-1.4-2.1-2.8-4.3-4.4-6.7c-0.8,2.5-1.6,4.7-2.3,7c-0.3,1-3.2,1.7-3.9,1.1
		c-0.3-0.3-0.1-0.6,0-0.9c1.3-4,2.7-8,4-12c0.3-1,0.9-1.7,2-1.8c1.1-0.1,1.7,0.5,2.2,1.3C58.8,123.4,60.3,125.5,61.8,128z"/>
	<path class="st8" d="M106.9,129.1c0.1,1.4-0.7,2.6-1,3.9c-0.2,0.6-0.4,1.2-0.3,1.8c-3.8,0-7.5,0-11.6,0c1.2-1.3,2.1-2.5,3.3-3.5
		c1-0.8,2.3-0.4,3.5-0.3c1.5,0.1,2-0.2,1.4-1.8c-0.4-1-0.6-2.2-1-3.5c-2.3,2.5-4.6,4.8-6.6,7.2c-1.3,1.5-2.7,2.3-4.7,2
		c-0.5-0.1-1,0-1.5,0c-0.2-0.7,0.3-0.8,0.6-1.1c3.5-3.9,7-7.7,10.6-11.5c0.3-0.3,0.6-0.7,0.9-1c2.7-2.5,4.4-1.3,4.9,1.4
		C105.6,124.8,106.3,126.9,106.9,129.1z"/>
	<path class="st8" d="M53.9,76.6c1.2-3.7,2.4-7.1,3.5-10.5c0.2-0.6,0.4-0.9,1.1-0.9c3.4,0,6.7,0,10.3,0c-1.2,3.7-2.4,7.2-3.5,10.7
		c-0.2,0.6-0.6,0.7-1.2,0.7C60.7,76.6,57.4,76.6,53.9,76.6z"/>
	<path class="st8" d="M154.6,119.9c-2.7,2.5-5.1,5-7.6,7.2c-2,1.7-3.4,3.6-4,6.2c-0.3,1.3-2.8,2.1-3.9,1.4c-0.5-0.3-0.3-0.8-0.1-1.1
		c1.7-2.9,0.8-5.7-0.6-8.4c-0.7-1.4-1.2-2.8-1.8-4.2c-0.4-0.8-0.5-1.3,0.7-1.3c3.6-0.1,3.6-0.1,5.3,3.7c1,2.3,1,2.3,2.8,0.6
		c0.8-0.8,1.7-1.4,2.3-2.3C149.5,119.4,151.9,119.7,154.6,119.9z"/>
	<path class="st8" d="M83.2,122.1c0.5,0.4,0.7-0.2,0.9-0.4c1.1-1.6,2.6-1.9,4.4-1.8c3.1,0.1,6.3,0,9.9,0c-2.2,1.9-3.2,4.6-6.4,3.9
		c-0.9-0.2-1.2,0.3-1.4,1.1c-0.8,2.7-1.8,5.3-2.5,8c-0.4,1.6-1.2,2.3-2.9,2c-0.5-0.1-1,0-1.7,0c1.1-3.3,2.1-6.5,3.2-9.6
		c0.4-1.1,0.4-1.7-1-1.5c-0.8,0.1-1.6,0-2.4,0c-0.6,0-0.9-0.2-1-0.7c0,0,0,0,0,0c0.4,0.2,0.6,0.1,0.4-0.4c0,0,0,0,0,0
		c0.1,0,0.3,0,0.4,0c0-0.1,0-0.3,0-0.4c0,0,0,0,0,0C83.3,122.6,83.4,122.4,83.2,122.1L83.2,122.1z"/>
	<path class="st8" d="M45.2,134.8c-1.7,0.3-1.9-0.2-1.3-1.8c1.4-3.9,2.6-7.9,3.9-11.9c0.4-1.1,3-2,3.9-1.3c0.4,0.3,0.1,0.6,0,0.9
		c-1.4,4.3-2.9,8.7-4.2,13C47,135.3,46,134.7,45.2,134.8z"/>
	<path class="st8" d="M123.3,128.4c-0.2,0.2-0.3,0.7-0.7,0.3c-0.2-0.2,0.1-0.4,0.4-0.6C123.1,128.3,123.2,128.4,123.3,128.4z"/>
	<path class="st8" d="M123.6,128.1c-0.1,0.1-0.2,0.2-0.3,0.3c-0.1-0.1-0.2-0.2-0.3-0.2c0.1-0.1,0.2-0.3,0.3-0.4
		C123.4,127.9,123.5,128,123.6,128.1z"/>
	<path class="st8" d="M83.2,122c0.2,0.4,0.1,0.6-0.4,0.4C82.8,122.1,82.9,122,83.2,122z"/>
	<path class="st8" d="M82.9,122.4c0,0.1,0,0.3,0,0.4c-0.1,0-0.3,0-0.4,0C82.5,122.5,82.6,122.4,82.9,122.4z"/>
	<path class="st8" d="M82.5,122.7c0.2,0.5,0,0.5-0.4,0.4C82.1,122.9,82.3,122.7,82.5,122.7z"/>
</g>
</svg>
