<?xml version="1.0" standalone="no"?>
<svg version="1.0" xmlns="http://www.w3.org/2000/svg"
 viewBox="0 0 2000 576"
 preserveAspectRatio="xMidYMid meet"
 aria-label="Soulia"
 role="img">
<g transform="translate(0,576) scale(0.1,-0.1)" fill="currentColor" stroke="none">
<path d="M14900 5436 c-327 -70 -542 -311 -528 -591 10 -201 158 -359 423
-451 75 -26 91 -28 240 -29 138 0 171 3 239 23 222 64 366 193 405 363 16 68
13 218 -5 280 -41 141 -152 276 -276 337 -139 68 -357 98 -498 68z"/>
<path d="M5645 5424 c-429 -33 -747 -132 -1017 -315 -200 -137 -389 -361 -505
-599 -214 -443 -294 -939 -280 -1755 17 -1002 154 -1495 516 -1855 318 -318
705 -453 1328 -467 459 -10 765 40 1038 171 536 257 850 730 964 1451 92 588
93 1281 0 1846 -81 497 -286 897 -586 1141 -322 262 -673 373 -1208 382 -110
2 -222 2 -250 0z m345 -1085 c248 -40 395 -247 445 -625 43 -332 41 -1015 -6
-1354 -69 -506 -250 -800 -524 -851 -75 -14 -234 -6 -301 15 -225 70 -376 333
-428 746 -46 367 -41 1025 10 1365 53 349 171 557 367 651 121 57 287 78 437
53z"/>
<path d="M1720 5405 c-440 -57 -799 -224 -1076 -499 -178 -177 -278 -337 -354
-565 -86 -257 -93 -562 -19 -784 96 -291 393 -629 789 -899 52 -36 257 -161
455 -278 483 -286 631 -386 700 -477 111 -145 44 -269 -175 -324 -83 -21 -326
-19 -423 4 -264 62 -420 250 -493 597 -14 63 -35 138 -48 165 -66 144 -276
246 -481 231 -349 -23 -556 -337 -516 -783 33 -366 157 -645 391 -873 238
-232 596 -394 1003 -454 395 -58 734 -37 1042 65 768 254 1187 942 1015 1667
-83 350 -359 689 -795 977 -61 40 -261 158 -445 261 -594 332 -709 430 -710
599 0 151 108 251 295 274 203 25 373 -37 475 -173 49 -66 71 -112 105 -216
54 -170 137 -290 228 -329 68 -29 153 -44 257 -44 163 0 275 45 381 153 110
112 157 233 166 432 13 271 -63 549 -203 745 -185 259 -511 443 -914 514 -150
27 -496 35 -650 14z"/>
<path d="M17675 5403 c-592 -38 -979 -177 -1227 -441 -113 -120 -162 -250
-163 -427 0 -94 2 -105 33 -168 64 -130 195 -241 342 -289 119 -39 370 -27
650 32 209 44 313 53 582 48 223 -4 248 -6 301 -27 32 -12 76 -37 99 -54 80
-62 134 -205 126 -333 -4 -65 -24 -68 -108 -13 -157 103 -276 132 -535 131
-548 0 -980 -153 -1292 -455 -170 -165 -293 -364 -373 -604 -123 -370 -145
-847 -55 -1203 78 -310 205 -540 410 -745 202 -203 445 -334 733 -396 141 -30
415 -37 537 -14 214 40 437 168 646 371 91 89 120 101 155 67 25 -25 50 -88
64 -158 39 -202 104 -283 273 -337 88 -28 352 -36 456 -14 218 46 354 187 416
430 42 167 50 406 50 1576 0 809 -3 1084 -13 1180 -73 680 -216 1055 -521
1361 -208 209 -440 337 -751 414 -231 58 -570 85 -835 68z m436 -2497 c148
-32 293 -135 349 -250 42 -85 53 -157 54 -331 0 -126 -3 -162 -22 -228 -71
-248 -241 -420 -472 -478 -88 -22 -271 -18 -355 8 -169 53 -300 186 -357 363
-26 82 -28 267 -4 378 31 143 116 302 207 389 134 126 397 192 600 149z"/>
<path d="M12744 5385 c-300 -65 -509 -409 -574 -944 -23 -194 -32 -774 -27
-1901 4 -1010 6 -1167 21 -1250 81 -471 275 -715 656 -826 255 -74 665 -85
907 -24 275 70 384 229 387 565 1 155 -9 214 -55 311 -88 187 -285 279 -493
230 -93 -22 -123 -1 -152 106 -21 78 -28 284 -15 428 7 69 16 280 21 470 5
190 17 446 27 570 26 335 26 1452 0 1619 -22 137 -66 281 -115 374 -47 91
-154 205 -224 239 -100 48 -237 61 -364 33z"/>
<path d="M10890 5374 c-199 -52 -339 -198 -397 -414 -16 -56 -18 -112 -18
-425 0 -198 7 -459 14 -580 17 -271 19 -862 2 -1050 -52 -611 -170 -983 -369
-1167 -88 -81 -146 -101 -282 -96 -95 3 -112 6 -172 36 -142 69 -227 228 -267
498 -35 232 -38 741 -11 1604 19 574 -1 852 -77 1095 -64 203 -183 364 -323
435 -102 52 -294 70 -401 37 -255 -77 -425 -455 -469 -1037 -5 -74 -15 -520
-22 -990 -13 -918 -8 -1130 32 -1436 84 -645 307 -1073 694 -1331 245 -164
543 -234 936 -220 193 7 304 25 426 68 165 58 274 132 345 236 35 50 67 67
103 54 13 -5 68 -45 124 -88 180 -140 305 -193 457 -193 144 0 222 35 319 142
118 129 195 339 221 603 24 243 37 3164 15 3400 -29 307 -110 517 -260 667
-87 88 -161 129 -276 153 -88 19 -272 18 -344 -1z"/>
<path d="M14961 4259 c-41 -6 -115 -23 -165 -39 -204 -66 -331 -199 -388 -407
-20 -75 -22 -106 -29 -763 -4 -377 -7 -1018 -8 -1425 -1 -812 4 -891 55 -1019
53 -133 181 -237 349 -282 94 -25 353 -31 435 -9 225 58 378 226 452 495 l23
85 0 1490 0 1490 -23 59 c-62 164 -183 273 -345 311 -83 19 -264 26 -356 14z"/>
</g>
</svg>
