<?xml version="1.0" encoding="utf-8"?>
<!-- Generator: Adobe Illustrator 27.9.0, SVG Export Plug-In . SVG Version: 6.00 Build 0)  -->
<svg version="1.1" id="ip_Layer1" xmlns="http://www.w3.org/2000/svg" xmlns:xlink="http://www.w3.org/1999/xlink" x="0px" y="0px"
	 viewBox="0 0 200 200" style="enable-background:new 0 0 200 200;" xml:space="preserve">
<style type="text/css">
	.st0{fill:#E60000;}
	.st1{fill:#FFFFFF;}
</style>
<circle class="st0" cx="100" cy="100" r="100"/>
<circle class="st0" cx="100" cy="100" r="84"/>
<path class="st1" d="M77.9,46.9c15.1-6,32.7-5.6,47.3,1.4c-4.2-0.6-8.4-0.2-12.6,0.5c-11.2,2.1-21.9,7.4-30.3,15.3
	c-8,7.9-13.6,18.3-15.2,29.5c-1,7.9-0.1,16.2,3.5,23.4c3.7,7.6,10.1,13.8,17.9,17c7.5,3.2,16.2,3.1,23.8,0.3
	c11.4-4.2,19.6-15.5,20.5-27.5c0.6-7.9-1.3-16.3-6.6-22.4c-5.1-5.9-12.5-9.2-19.9-11.1c-0.4-7.3,3-14.5,8.5-19.3
	c3-2.7,6.8-4.5,10.7-5.6l0.3-0.1c11.1,5.3,20.6,14.2,26.6,25c5.2,9.2,7.9,19.8,7.6,30.4c-0.1,13.7-5.2,27.2-13.9,37.7
	c-8.3,10-19.9,17.1-32.5,20c-12.7,2.9-26.3,1.7-38.1-3.7c-11.6-5.2-21.4-14.2-27.7-25.3c-5.2-9.2-7.9-19.8-7.7-30.4
	c0-13.2,4.7-26.3,12.9-36.6C59.4,57.3,68.1,50.7,77.9,46.9L77.9,46.9z"/>
</svg>
