<?xml version="1.0" encoding="utf-8"?>
<svg version="1.1" id="Layer_1" xmlns="http://www.w3.org/2000/svg" xmlns:xlink="http://www.w3.org/1999/xlink" x="0px" y="0px"
	 viewBox="0 0 1280 1024" style="enable-background:new 0 0 1280 1024;" xml:space="preserve">
<style type="text/css">
	.vf0{fill:#FEFEFE;} .vf1{fill:#E50000;} .vf2{fill:#E50101;} .vf3{fill:#E50404;} .vf4{fill:#E60808;} .vf5{fill:#E60606;} .vf6{fill:#E92525;} .vf7{fill:#E71818;} .vf8{fill:#E92828;} .vf9{fill:#EA3A3A;} .vf10{fill:#F7BBBB;} .vf11{fill:#F07171;} .vf12{fill:#EA3232;} .vf13{fill:#FBDBDB;} .vf14{fill:#F8C4C4;} .vf15{fill:#E92424;} .vf16{fill:#ED5353;} .vf17{fill:#F17676;} .vf18{fill:#FCE6E6;} .vf19{fill:#EC4B4B;} .vf20{fill:#FAD6D6;} .vf21{fill:#F17575;} .vf22{fill:#F17A7A;} .vf23{fill:#F07272;} .vf24{fill:#EC4242;} .vf25{fill:#F07070;} .vf26{fill:#E60B0B;} .vf27{fill:#E82626;} .vf28{fill:#E71111;} .vf29{fill:#F06C6C;} .vf30{fill:#EA3434;} .vf31{fill:#EB3D3D;} .vf32{fill:#EE5C5C;} .vf33{fill:#E60E0E;} .vf34{fill:#F49898;} .vf35{fill:#EA2F2F;} .vf36{fill:#F7B8B8;} .vf37{fill:#F9C3C3;} .vf38{fill:#E60303;} .vf39{fill:#FDF6F6;} .vf40{fill:#E81E1E;} .vf41{fill:#FBE2E2;} .vf42{fill:#E92626;} .vf43{fill:#F28686;} .vf44{fill:#EC4545;} .vf45{fill:#EB4141;} .vf46{fill:#EE6060;} .vf47{fill:#E71313;} .vf48{fill:#F8BCBC;} .vf49{fill:#E92323;} .vf50{fill:#F06D6D;} .vf51{fill:#EC4141;} .vf52{fill:#E81919;} .vf53{fill:#EF6262;} .vf54{fill:#EB4040;} .vf55{fill:#FAD5D5;} .vf56{fill:#ED4D4D;} .vf57{fill:#F9CACA;} .vf58{fill:#FBDFDF;} .vf59{fill:#EE5959;} .vf60{fill:#E92B2B;} .vf61{fill:#E92D2D;} .vf62{fill:#F8BFBF;} .vf63{fill:#F6ADAD;} .vf64{fill:#F9C8C8;} .vf65{fill:#F7B4B4;} .vf66{fill:#F6AAAA;} .vf67{fill:#F8C5C5;} .vf68{fill:#F8C3C3;} .vf69{fill:#FEFCFC;} .vf70{fill:#F5A0A0;} .vf71{fill:#F8C2C2;} .vf72{fill:#FCF0F0;} .vf73{fill:#FDF3F3;} .vf74{fill:#FDF5F5;} .vf75{fill:#E60A0A;} .vf76{fill:#E71212;} .vf77{fill:#F9D0D0;} .vf78{fill:#FADADA;} .vf79{fill:#E71B1B;} .vf80{fill:#F5A6A6;} .vf81{fill:#F6ABAB;} .vf82{fill:#E71515;} .vf83{fill:#E82121;} .vf84{fill:#F17777;} .vf85{fill:#E92A2A;} .vf86{fill:#F5A1A1;} .vf87{fill:#E71919;} .vf88{fill:#EE5A5A;} .vf89{fill:#E82020;} .vf90{fill:#FAD7D7;} .vf91{fill:#F7B7B7;} .vf92{fill:#F7B6B6;} .vf93{fill:#F9D2D2;} .vf94{fill:#F9CBCB;} .vf95{fill:#E50202;} .vf96{fill:#F6AEAE;} .vf97{fill:#E71717;} .vf98{fill:#F17878;} .vf99{fill:#E81D1D;} .vf100{fill:#EA3030;} .vf101{fill:#E60707;}
</style>
<g><g>
<path class="vf0" d="M1008.82,506.75c0,126.3-0.04,252.6,0.15,378.89c0.01,5.28-1.04,6.32-6.32,6.32c-253.11-0.17-506.22-0.17-759.33,0c-5.28,0-6.32-1.03-6.32-6.32c0.17-253.11,0.17-506.22,0-759.33c0-5.28,1.03-6.32,6.32-6.32c253.11,0.17,506.22,0.17,759.33,0c5.28,0,6.33,1.03,6.32,6.32C1008.78,253.13,1008.82,379.94,1008.82,506.75z"/>
<path class="vf1" d="M498.18,651.6c4.84-1.69,6.26-6.39,10.42-11.6c-15.89,0-30.27,0.1-44.66-0.03c-14.53-0.14-29.19,0.18-42.59-7.03c0.84-3.11,3.04-2.06,4.53-2.06c36.19-0.07,72.38-0.07,108.56-0.03c1.95,0,4.3-0.79,5.69,1.26c1.34,1.97-0.43,3.35-1.49,4.69c-19.79,24.9-39.6,49.79-59.45,74.65c-0.59,0.74-1.68,1.07-2.54,1.6c-1.3,3.49,1.7,2.04,2.66,2c3.13-0.15,6.38,0.97,9.38-0.7c11.48-2.94,20.06-9.92,27.18-19.14c7.85-10.18,16.4-19.84,23.78-30.34c4.91-6.99,10.76-9.58,18.91-8.7c4.28,0.46,8.71-0.36,13.73,1.87c-13.63,17.22-27.07,34.21-41.09,51.93c9.36,2.27,15.77,0.75,21.17-6.46c9.85-13.17,20.64-25.64,30.44-38.85c4.61-6.22,9.75-9.45,17.49-8.45c4.76,0.61,9.72-0.96,15.31,1.48c-10.27,12.93-20.28,25.52-30.27,38.12c-2.88,3.62-5.71,7.28-8.61,10.89c-2.51,3.13-1.6,4.32,2.2,4.58c7.16,0.49,12.19-2.79,16.43-8.2c9.98-12.76,20.53-25.09,30.02-38.19c4.98-6.87,10.58-9.9,18.79-8.66c4.23,0.64,10.52-2.04,12.26,1.35c1.83,3.55-3.79,7.02-6.4,10.31c-13.1,16.52-26.53,32.77-39.44,49.44c-4.07,5.25-8.54,7.16-15.08,7.06c-22.89-0.33-45.78-0.07-68.67-0.18c-4.28-0.02-8.16,0.43-11.32,3.65c-5.23,5.35-12.01,6.94-19.06,7c-23.15,0.18-46.29,0.07-69.44,0.02c-1.11,0-2.52,0.39-3.7-2.03c8.23-1.21,16.53-2.37,20.49-10.87c2.39-2.04,2.63-5.15,3.89-7.77c0.93-1.5,2.78-1.78,3.94-2.97c14.08-16.38,27.97-32.9,40.03-50.88C492.39,656.34,495.26,653.95,498.18,651.6z"/>
<path class="vf1" d="M746.26,715.77c5.24-4.58,12.42-10.53,11.15-16.2c-0.97-4.33-11-1.51-16.97-1.7c-11.05-0.36-22.11-0.08-33.17-0.19c-1.7-0.02-4.06-0.07-4.93-1.1c-1.45-1.71,0.8-3.21,1.8-4.52c14.2-18.59,28.52-37.09,42.68-55.71c2.45-3.22,5.4-4.38,9.26-4.37c23.15,0.05,46.29,0.01,69.44,0.05c1.47,0,3.62-0.05,4.28,0.81c1.41,1.84-0.8,3.14-1.75,4.54c-5.75,8.51-13.33,12.7-24.05,12.33c-12.82-0.43-25.68,0.55-38.52,0.77c-3.13,0.05-4.51,1.05-6.28,4.02c-4.58,7.7-10.29,14.71-15.51,22.03c-1,1.4-2.86,2.94-1.5,4.67c0.68,0.87,2.76,0.85,4.21,0.87c7.71,0.08,15.43-0.01,23.15,0.06c6.64,0.06,11.91,2.49,15.11,8.73c3.07,6,0.11,10.4-3.54,14.59c-4.91,5.64-7.39,13.94-16.35,15.31c-0.17,0.03-1.16-0.52-0.88,0.91c1.48,7.64-2.94,14.09-10.02,14.1c-48.09,0.08-96.19-0.01-144.28-0.07c-0.34,0-0.67-0.3-1-0.46c0.14-0.29,0.25-0.73,0.35-0.73c16.41,0.3,25.32-10.36,34.3-22.12c19.04-24.91,39.07-49.07,58.29-73.84c3.94-5.08,7.96-7.24,14.22-6.67c5.34,0.49,10.75,0.1,18.64,0.1c-22.51,27.95-43.8,54.4-65.09,80.84c-1.16,0.98-3.86,1.67-0.91,3.55c1.04,0.66,2.5,0.28,3.78,0.28c23.52,0.01,47.03,0.01,70.55,0C743.96,716.67,745.28,716.85,746.26,715.77z"/>
</g></g>
</svg>
